<mxfile host="app.diagrams.net" agent="Mozilla/5.0 (Windows NT 10.0; Win64; x64) AppleWebKit/537.36 (KHTML, like Gecko) Chrome/130.0.0.0 Safari/537.36" version="24.8.6">
  <diagram name="หน้า-1" id="E_lMKuu8gHVUi95kVC8Y">
    <mxGraphModel dx="1050" dy="1699" grid="1" gridSize="10" guides="1" tooltips="1" connect="1" arrows="1" fold="1" page="1" pageScale="1" pageWidth="827" pageHeight="1169" math="0" shadow="0">
      <root>
        <mxCell id="0" />
        <mxCell id="1" parent="0" />
        <mxCell id="05nKosQ1NIUuTcAkuiN1-1" value="Start" style="ellipse;whiteSpace=wrap;html=1;" vertex="1" parent="1">
          <mxGeometry x="354" y="-1160" width="120" height="80" as="geometry" />
        </mxCell>
        <mxCell id="05nKosQ1NIUuTcAkuiN1-2" value="Hello world" style="shape=parallelogram;perimeter=parallelogramPerimeter;whiteSpace=wrap;html=1;fixedSize=1;" vertex="1" parent="1">
          <mxGeometry x="354" y="-1040" width="120" height="60" as="geometry" />
        </mxCell>
        <mxCell id="05nKosQ1NIUuTcAkuiN1-3" value="End" style="ellipse;whiteSpace=wrap;html=1;" vertex="1" parent="1">
          <mxGeometry x="354" y="-940" width="120" height="80" as="geometry" />
        </mxCell>
        <mxCell id="05nKosQ1NIUuTcAkuiN1-4" value="" style="endArrow=classic;html=1;rounded=0;entryX=0.5;entryY=0;entryDx=0;entryDy=0;exitX=0.5;exitY=1;exitDx=0;exitDy=0;" edge="1" parent="1" source="05nKosQ1NIUuTcAkuiN1-2" target="05nKosQ1NIUuTcAkuiN1-3">
          <mxGeometry width="50" height="50" relative="1" as="geometry">
            <mxPoint x="390" y="-890" as="sourcePoint" />
            <mxPoint x="440" y="-940" as="targetPoint" />
            <Array as="points">
              <mxPoint x="414" y="-960" />
            </Array>
          </mxGeometry>
        </mxCell>
        <mxCell id="05nKosQ1NIUuTcAkuiN1-5" value="" style="endArrow=classic;html=1;rounded=0;entryX=0.5;entryY=0;entryDx=0;entryDy=0;exitX=0.5;exitY=1;exitDx=0;exitDy=0;" edge="1" parent="1" source="05nKosQ1NIUuTcAkuiN1-1" target="05nKosQ1NIUuTcAkuiN1-2">
          <mxGeometry width="50" height="50" relative="1" as="geometry">
            <mxPoint x="390" y="-890" as="sourcePoint" />
            <mxPoint x="440" y="-940" as="targetPoint" />
            <Array as="points">
              <mxPoint x="414" y="-1060" />
            </Array>
          </mxGeometry>
        </mxCell>
      </root>
    </mxGraphModel>
  </diagram>
</mxfile>
